<mxfile host="app.diagrams.net" agent="Mozilla/5.0 (Windows NT 10.0; Win64; x64) AppleWebKit/537.36 (KHTML, like Gecko) Chrome/129.0.0.0 Safari/537.36 Edg/129.0.0.0" version="24.7.17">
  <diagram name="Page-1" id="f5_gavlyWGWcPMPK72Mo">
    <mxGraphModel dx="1042" dy="1631" grid="1" gridSize="10" guides="1" tooltips="1" connect="1" arrows="1" fold="1" page="1" pageScale="1" pageWidth="850" pageHeight="1100" math="0" shadow="0">
      <root>
        <mxCell id="0" />
        <mxCell id="1" parent="0" />
        <mxCell id="Szz_0jvh1cqQydP9ENVo-8" style="edgeStyle=orthogonalEdgeStyle;rounded=0;orthogonalLoop=1;jettySize=auto;html=1;entryX=0.5;entryY=0;entryDx=0;entryDy=0;" parent="1" source="CTmQaMRfLMgIivIih5rs-1" target="Szz_0jvh1cqQydP9ENVo-7" edge="1">
          <mxGeometry relative="1" as="geometry" />
        </mxCell>
        <mxCell id="CTmQaMRfLMgIivIih5rs-1" value="Start" style="strokeWidth=2;html=1;shape=mxgraph.flowchart.start_1;whiteSpace=wrap;" parent="1" vertex="1">
          <mxGeometry x="376" y="-90" width="100" height="60" as="geometry" />
        </mxCell>
        <mxCell id="CTmQaMRfLMgIivIih5rs-3" value="End" style="strokeWidth=2;html=1;shape=mxgraph.flowchart.start_1;whiteSpace=wrap;" parent="1" vertex="1">
          <mxGeometry x="550" y="1356" width="100" height="60" as="geometry" />
        </mxCell>
        <mxCell id="CTmQaMRfLMgIivIih5rs-8" value="" style="edgeStyle=orthogonalEdgeStyle;rounded=0;orthogonalLoop=1;jettySize=auto;html=1;" parent="1" target="CTmQaMRfLMgIivIih5rs-5" edge="1">
          <mxGeometry relative="1" as="geometry">
            <mxPoint x="425" y="160" as="sourcePoint" />
          </mxGeometry>
        </mxCell>
        <mxCell id="CTmQaMRfLMgIivIih5rs-12" value="" style="edgeStyle=orthogonalEdgeStyle;rounded=0;orthogonalLoop=1;jettySize=auto;html=1;" parent="1" source="CTmQaMRfLMgIivIih5rs-5" target="CTmQaMRfLMgIivIih5rs-18" edge="1">
          <mxGeometry relative="1" as="geometry">
            <mxPoint x="305" y="240" as="targetPoint" />
          </mxGeometry>
        </mxCell>
        <mxCell id="CTmQaMRfLMgIivIih5rs-21" value="" style="edgeStyle=orthogonalEdgeStyle;rounded=0;orthogonalLoop=1;jettySize=auto;html=1;" parent="1" source="CTmQaMRfLMgIivIih5rs-5" target="CTmQaMRfLMgIivIih5rs-20" edge="1">
          <mxGeometry relative="1" as="geometry" />
        </mxCell>
        <mxCell id="CTmQaMRfLMgIivIih5rs-5" value="Akun&lt;div&gt;ditemukan ?&lt;/div&gt;" style="strokeWidth=2;html=1;shape=mxgraph.flowchart.decision;whiteSpace=wrap;" parent="1" vertex="1">
          <mxGeometry x="375" y="190" width="100" height="100" as="geometry" />
        </mxCell>
        <mxCell id="CTmQaMRfLMgIivIih5rs-15" value="" style="edgeStyle=orthogonalEdgeStyle;rounded=0;orthogonalLoop=1;jettySize=auto;html=1;" parent="1" source="CTmQaMRfLMgIivIih5rs-13" target="CTmQaMRfLMgIivIih5rs-5" edge="1">
          <mxGeometry relative="1" as="geometry" />
        </mxCell>
        <mxCell id="CTmQaMRfLMgIivIih5rs-13" value="User Login" style="whiteSpace=wrap;html=1;strokeWidth=2;" parent="1" vertex="1">
          <mxGeometry x="365" y="100" width="120" height="60" as="geometry" />
        </mxCell>
        <mxCell id="CTmQaMRfLMgIivIih5rs-17" value="No" style="text;html=1;align=center;verticalAlign=middle;resizable=0;points=[];autosize=1;strokeColor=none;fillColor=none;" parent="1" vertex="1">
          <mxGeometry x="325" y="210" width="40" height="30" as="geometry" />
        </mxCell>
        <mxCell id="CTmQaMRfLMgIivIih5rs-19" style="edgeStyle=orthogonalEdgeStyle;rounded=0;orthogonalLoop=1;jettySize=auto;html=1;entryX=0;entryY=0.5;entryDx=0;entryDy=0;" parent="1" source="CTmQaMRfLMgIivIih5rs-18" target="CTmQaMRfLMgIivIih5rs-13" edge="1">
          <mxGeometry relative="1" as="geometry">
            <Array as="points">
              <mxPoint x="250" y="130" />
            </Array>
          </mxGeometry>
        </mxCell>
        <mxCell id="CTmQaMRfLMgIivIih5rs-18" value="output username/&lt;div&gt;password&lt;div&gt;salah&lt;/div&gt;&lt;/div&gt;" style="shape=parallelogram;perimeter=parallelogramPerimeter;whiteSpace=wrap;html=1;dashed=0;shadow=0;fontStyle=0;labelBorderColor=none;labelBackgroundColor=none;strokeColor=default;strokeWidth=2;align=center;verticalAlign=middle;fontFamily=Helvetica;fontSize=12;fontColor=default;fillColor=default;" parent="1" vertex="1">
          <mxGeometry x="160" y="215" width="165" height="50" as="geometry" />
        </mxCell>
        <mxCell id="CTmQaMRfLMgIivIih5rs-23" value="" style="edgeStyle=orthogonalEdgeStyle;rounded=0;orthogonalLoop=1;jettySize=auto;html=1;entryX=0;entryY=0.25;entryDx=0;entryDy=0;" parent="1" source="CTmQaMRfLMgIivIih5rs-20" target="CTmQaMRfLMgIivIih5rs-35" edge="1">
          <mxGeometry relative="1" as="geometry">
            <mxPoint x="714" y="370" as="targetPoint" />
          </mxGeometry>
        </mxCell>
        <mxCell id="CTmQaMRfLMgIivIih5rs-117" style="edgeStyle=orthogonalEdgeStyle;rounded=0;orthogonalLoop=1;jettySize=auto;html=1;entryX=0.5;entryY=0;entryDx=0;entryDy=0;" parent="1" source="CTmQaMRfLMgIivIih5rs-20" target="CTmQaMRfLMgIivIih5rs-33" edge="1">
          <mxGeometry relative="1" as="geometry" />
        </mxCell>
        <mxCell id="CTmQaMRfLMgIivIih5rs-20" value="Akun&lt;div&gt;Admin ?&lt;/div&gt;" style="rhombus;whiteSpace=wrap;html=1;strokeWidth=2;" parent="1" vertex="1">
          <mxGeometry x="385" y="330" width="80" height="80" as="geometry" />
        </mxCell>
        <mxCell id="CTmQaMRfLMgIivIih5rs-24" value="Yes" style="text;html=1;align=center;verticalAlign=middle;resizable=0;points=[];autosize=1;strokeColor=none;fillColor=none;" parent="1" vertex="1">
          <mxGeometry x="425" y="292" width="40" height="30" as="geometry" />
        </mxCell>
        <mxCell id="CTmQaMRfLMgIivIih5rs-25" value="No" style="text;html=1;align=center;verticalAlign=middle;resizable=0;points=[];autosize=1;strokeColor=none;fillColor=none;" parent="1" vertex="1">
          <mxGeometry x="460" y="340" width="40" height="30" as="geometry" />
        </mxCell>
        <mxCell id="CTmQaMRfLMgIivIih5rs-28" value="Yes" style="text;html=1;align=center;verticalAlign=middle;resizable=0;points=[];autosize=1;strokeColor=none;fillColor=none;" parent="1" vertex="1">
          <mxGeometry x="384.75" y="400" width="40" height="30" as="geometry" />
        </mxCell>
        <mxCell id="Szz_0jvh1cqQydP9ENVo-17" style="edgeStyle=orthogonalEdgeStyle;rounded=0;orthogonalLoop=1;jettySize=auto;html=1;entryX=0.5;entryY=0;entryDx=0;entryDy=0;" parent="1" source="CTmQaMRfLMgIivIih5rs-33" target="Szz_0jvh1cqQydP9ENVo-14" edge="1">
          <mxGeometry relative="1" as="geometry" />
        </mxCell>
        <mxCell id="CTmQaMRfLMgIivIih5rs-33" value="Output Menu Admin" style="shape=parallelogram;perimeter=parallelogramPerimeter;whiteSpace=wrap;html=1;dashed=0;strokeColor=default;strokeWidth=2;align=center;verticalAlign=middle;fontFamily=Helvetica;fontSize=12;fontColor=default;fillColor=default;" parent="1" vertex="1">
          <mxGeometry x="354.75" y="443" width="142.5" height="50" as="geometry" />
        </mxCell>
        <mxCell id="Szz_0jvh1cqQydP9ENVo-21" style="edgeStyle=orthogonalEdgeStyle;rounded=0;orthogonalLoop=1;jettySize=auto;html=1;entryX=0.5;entryY=0;entryDx=0;entryDy=0;" parent="1" source="CTmQaMRfLMgIivIih5rs-35" target="Szz_0jvh1cqQydP9ENVo-20" edge="1">
          <mxGeometry relative="1" as="geometry" />
        </mxCell>
        <mxCell id="CTmQaMRfLMgIivIih5rs-35" value="Output Menu User" style="shape=parallelogram;perimeter=parallelogramPerimeter;whiteSpace=wrap;html=1;dashed=0;strokeColor=default;strokeWidth=2;align=center;verticalAlign=middle;fontFamily=Helvetica;fontSize=12;fontColor=default;fillColor=default;" parent="1" vertex="1">
          <mxGeometry x="690" y="354" width="142.5" height="50" as="geometry" />
        </mxCell>
        <mxCell id="CTmQaMRfLMgIivIih5rs-43" value="" style="edgeStyle=orthogonalEdgeStyle;rounded=0;orthogonalLoop=1;jettySize=auto;html=1;" parent="1" source="CTmQaMRfLMgIivIih5rs-38" target="CTmQaMRfLMgIivIih5rs-42" edge="1">
          <mxGeometry relative="1" as="geometry" />
        </mxCell>
        <mxCell id="Szz_0jvh1cqQydP9ENVo-24" style="edgeStyle=orthogonalEdgeStyle;rounded=0;orthogonalLoop=1;jettySize=auto;html=1;entryX=0.5;entryY=0;entryDx=0;entryDy=0;" parent="1" source="CTmQaMRfLMgIivIih5rs-38" target="Szz_0jvh1cqQydP9ENVo-23" edge="1">
          <mxGeometry relative="1" as="geometry" />
        </mxCell>
        <mxCell id="CTmQaMRfLMgIivIih5rs-38" value="Register&lt;div&gt;User&amp;nbsp;&lt;/div&gt;" style="strokeWidth=2;html=1;shape=mxgraph.flowchart.decision;whiteSpace=wrap;" parent="1" vertex="1">
          <mxGeometry x="376" y="613" width="100" height="100" as="geometry" />
        </mxCell>
        <mxCell id="CTmQaMRfLMgIivIih5rs-56" value="" style="edgeStyle=orthogonalEdgeStyle;rounded=0;orthogonalLoop=1;jettySize=auto;html=1;" parent="1" source="ys0p1O7EgWVjhq2hk7gU-1" target="CTmQaMRfLMgIivIih5rs-55" edge="1">
          <mxGeometry relative="1" as="geometry" />
        </mxCell>
        <mxCell id="CTmQaMRfLMgIivIih5rs-42" value="Manage&lt;div&gt;Kamar&lt;/div&gt;" style="strokeWidth=2;html=1;shape=mxgraph.flowchart.decision;whiteSpace=wrap;" parent="1" vertex="1">
          <mxGeometry x="57" y="613" width="100" height="100" as="geometry" />
        </mxCell>
        <mxCell id="CTmQaMRfLMgIivIih5rs-44" value="Registerasi User" style="whiteSpace=wrap;html=1;strokeWidth=2;" parent="1" vertex="1">
          <mxGeometry x="366" y="829" width="120" height="60" as="geometry" />
        </mxCell>
        <mxCell id="CTmQaMRfLMgIivIih5rs-48" value="Yes" style="text;html=1;align=center;verticalAlign=middle;resizable=0;points=[];autosize=1;strokeColor=none;fillColor=none;" parent="1" vertex="1">
          <mxGeometry x="424.75" y="713" width="40" height="30" as="geometry" />
        </mxCell>
        <mxCell id="CTmQaMRfLMgIivIih5rs-49" value="No" style="text;html=1;align=center;verticalAlign=middle;resizable=0;points=[];autosize=1;strokeColor=none;fillColor=none;" parent="1" vertex="1">
          <mxGeometry x="336" y="633" width="40" height="30" as="geometry" />
        </mxCell>
        <mxCell id="CTmQaMRfLMgIivIih5rs-101" value="" style="edgeStyle=orthogonalEdgeStyle;rounded=0;orthogonalLoop=1;jettySize=auto;html=1;" parent="1" source="CTmQaMRfLMgIivIih5rs-52" target="CTmQaMRfLMgIivIih5rs-100" edge="1">
          <mxGeometry relative="1" as="geometry" />
        </mxCell>
        <mxCell id="CTmQaMRfLMgIivIih5rs-52" value="Memesan Kamar" style="whiteSpace=wrap;html=1;dashed=0;strokeWidth=2;" parent="1" vertex="1">
          <mxGeometry x="700.25" y="532" width="120" height="60" as="geometry" />
        </mxCell>
        <mxCell id="CTmQaMRfLMgIivIih5rs-76" value="" style="edgeStyle=orthogonalEdgeStyle;rounded=0;orthogonalLoop=1;jettySize=auto;html=1;" parent="1" source="CTmQaMRfLMgIivIih5rs-55" target="CTmQaMRfLMgIivIih5rs-75" edge="1">
          <mxGeometry relative="1" as="geometry" />
        </mxCell>
        <mxCell id="Szz_0jvh1cqQydP9ENVo-30" style="edgeStyle=orthogonalEdgeStyle;rounded=0;orthogonalLoop=1;jettySize=auto;html=1;exitX=1;exitY=0.5;exitDx=0;exitDy=0;" parent="1" source="CTmQaMRfLMgIivIih5rs-55" target="Szz_0jvh1cqQydP9ENVo-28" edge="1">
          <mxGeometry relative="1" as="geometry" />
        </mxCell>
        <mxCell id="CTmQaMRfLMgIivIih5rs-55" value="Tambah&lt;br&gt;kamar" style="rhombus;whiteSpace=wrap;html=1;strokeWidth=2;" parent="1" vertex="1">
          <mxGeometry x="66.75" y="902" width="80" height="80" as="geometry" />
        </mxCell>
        <mxCell id="CTmQaMRfLMgIivIih5rs-57" value="Yes" style="text;html=1;align=center;verticalAlign=middle;resizable=0;points=[];autosize=1;strokeColor=none;fillColor=none;" parent="1" vertex="1">
          <mxGeometry x="106.75" y="713" width="40" height="30" as="geometry" />
        </mxCell>
        <mxCell id="CTmQaMRfLMgIivIih5rs-65" value="Menambahkan&lt;div&gt;kamar&lt;/div&gt;" style="whiteSpace=wrap;html=1;strokeWidth=2;" parent="1" vertex="1">
          <mxGeometry x="351.5" y="912" width="120" height="60" as="geometry" />
        </mxCell>
        <mxCell id="CTmQaMRfLMgIivIih5rs-81" style="edgeStyle=orthogonalEdgeStyle;rounded=0;orthogonalLoop=1;jettySize=auto;html=1;entryX=0;entryY=0.5;entryDx=0;entryDy=0;" parent="1" source="CTmQaMRfLMgIivIih5rs-75" target="CTmQaMRfLMgIivIih5rs-80" edge="1">
          <mxGeometry relative="1" as="geometry" />
        </mxCell>
        <mxCell id="CTmQaMRfLMgIivIih5rs-83" value="" style="edgeStyle=orthogonalEdgeStyle;rounded=0;orthogonalLoop=1;jettySize=auto;html=1;" parent="1" source="CTmQaMRfLMgIivIih5rs-75" target="CTmQaMRfLMgIivIih5rs-82" edge="1">
          <mxGeometry relative="1" as="geometry" />
        </mxCell>
        <mxCell id="CTmQaMRfLMgIivIih5rs-75" value="Lihat&lt;div&gt;Kamar&lt;/div&gt;" style="rhombus;whiteSpace=wrap;html=1;strokeWidth=2;" parent="1" vertex="1">
          <mxGeometry x="66.75" y="1022" width="80" height="80" as="geometry" />
        </mxCell>
        <mxCell id="CTmQaMRfLMgIivIih5rs-80" value="List Kamar" style="shape=parallelogram;perimeter=parallelogramPerimeter;whiteSpace=wrap;html=1;dashed=0;strokeColor=default;strokeWidth=2;align=center;verticalAlign=middle;fontFamily=Helvetica;fontSize=12;fontColor=default;fillColor=default;" parent="1" vertex="1">
          <mxGeometry x="265" y="1037" width="100" height="50" as="geometry" />
        </mxCell>
        <mxCell id="CTmQaMRfLMgIivIih5rs-85" value="" style="edgeStyle=orthogonalEdgeStyle;rounded=0;orthogonalLoop=1;jettySize=auto;html=1;" parent="1" source="CTmQaMRfLMgIivIih5rs-82" target="CTmQaMRfLMgIivIih5rs-84" edge="1">
          <mxGeometry relative="1" as="geometry" />
        </mxCell>
        <mxCell id="Szz_0jvh1cqQydP9ENVo-33" style="edgeStyle=orthogonalEdgeStyle;rounded=0;orthogonalLoop=1;jettySize=auto;html=1;exitX=1;exitY=0.5;exitDx=0;exitDy=0;entryX=0;entryY=0.5;entryDx=0;entryDy=0;" parent="1" source="CTmQaMRfLMgIivIih5rs-82" target="Szz_0jvh1cqQydP9ENVo-32" edge="1">
          <mxGeometry relative="1" as="geometry" />
        </mxCell>
        <mxCell id="CTmQaMRfLMgIivIih5rs-82" value="Ubah&lt;div&gt;Kamar&lt;/div&gt;" style="rhombus;whiteSpace=wrap;html=1;strokeWidth=2;" parent="1" vertex="1">
          <mxGeometry x="66.75" y="1142" width="80" height="80" as="geometry" />
        </mxCell>
        <mxCell id="Szz_0jvh1cqQydP9ENVo-37" style="edgeStyle=orthogonalEdgeStyle;rounded=0;orthogonalLoop=1;jettySize=auto;html=1;exitX=1;exitY=0.5;exitDx=0;exitDy=0;" parent="1" source="CTmQaMRfLMgIivIih5rs-84" target="Szz_0jvh1cqQydP9ENVo-35" edge="1">
          <mxGeometry relative="1" as="geometry" />
        </mxCell>
        <mxCell id="CTmQaMRfLMgIivIih5rs-84" value="Hapus&lt;div&gt;Kamar&lt;/div&gt;" style="rhombus;whiteSpace=wrap;html=1;strokeWidth=2;" parent="1" vertex="1">
          <mxGeometry x="66.75" y="1262" width="80" height="80" as="geometry" />
        </mxCell>
        <mxCell id="CTmQaMRfLMgIivIih5rs-86" value="Yes" style="text;html=1;align=center;verticalAlign=middle;resizable=0;points=[];autosize=1;strokeColor=none;fillColor=none;" parent="1" vertex="1">
          <mxGeometry x="147" y="912" width="40" height="30" as="geometry" />
        </mxCell>
        <mxCell id="CTmQaMRfLMgIivIih5rs-87" value="Yes" style="text;html=1;align=center;verticalAlign=middle;resizable=0;points=[];autosize=1;strokeColor=none;fillColor=none;" parent="1" vertex="1">
          <mxGeometry x="151" y="1032" width="40" height="30" as="geometry" />
        </mxCell>
        <mxCell id="CTmQaMRfLMgIivIih5rs-88" value="Mengubah Kamar" style="whiteSpace=wrap;html=1;strokeWidth=2;" parent="1" vertex="1">
          <mxGeometry x="351.5" y="1152" width="120" height="60" as="geometry" />
        </mxCell>
        <mxCell id="CTmQaMRfLMgIivIih5rs-90" value="Yes" style="text;html=1;align=center;verticalAlign=middle;resizable=0;points=[];autosize=1;strokeColor=none;fillColor=none;" parent="1" vertex="1">
          <mxGeometry x="151" y="1152" width="40" height="30" as="geometry" />
        </mxCell>
        <mxCell id="CTmQaMRfLMgIivIih5rs-91" value="Menghapus kamar" style="whiteSpace=wrap;html=1;strokeWidth=2;" parent="1" vertex="1">
          <mxGeometry x="351.5" y="1272" width="120" height="60" as="geometry" />
        </mxCell>
        <mxCell id="CTmQaMRfLMgIivIih5rs-93" value="Yes" style="text;html=1;align=center;verticalAlign=middle;resizable=0;points=[];autosize=1;strokeColor=none;fillColor=none;" parent="1" vertex="1">
          <mxGeometry x="151" y="1272" width="40" height="30" as="geometry" />
        </mxCell>
        <mxCell id="CTmQaMRfLMgIivIih5rs-94" value="No" style="text;html=1;align=center;verticalAlign=middle;resizable=0;points=[];autosize=1;strokeColor=none;fillColor=none;" parent="1" vertex="1">
          <mxGeometry x="66.75" y="982" width="40" height="30" as="geometry" />
        </mxCell>
        <mxCell id="CTmQaMRfLMgIivIih5rs-95" value="No" style="text;html=1;align=center;verticalAlign=middle;resizable=0;points=[];autosize=1;strokeColor=none;fillColor=none;" parent="1" vertex="1">
          <mxGeometry x="66.75" y="1102" width="40" height="30" as="geometry" />
        </mxCell>
        <mxCell id="CTmQaMRfLMgIivIih5rs-96" value="No" style="text;html=1;align=center;verticalAlign=middle;resizable=0;points=[];autosize=1;strokeColor=none;fillColor=none;" parent="1" vertex="1">
          <mxGeometry x="66.75" y="1222" width="40" height="30" as="geometry" />
        </mxCell>
        <mxCell id="CTmQaMRfLMgIivIih5rs-103" style="edgeStyle=orthogonalEdgeStyle;rounded=0;orthogonalLoop=1;jettySize=auto;html=1;entryX=1;entryY=0.5;entryDx=0;entryDy=0;" parent="1" source="CTmQaMRfLMgIivIih5rs-100" target="CTmQaMRfLMgIivIih5rs-35" edge="1">
          <mxGeometry relative="1" as="geometry">
            <Array as="points">
              <mxPoint x="890" y="683" />
              <mxPoint x="890" y="616" />
              <mxPoint x="891" y="379" />
            </Array>
          </mxGeometry>
        </mxCell>
        <mxCell id="CTmQaMRfLMgIivIih5rs-100" value="Lanjutkan&lt;div&gt;program ?&lt;/div&gt;" style="rhombus;whiteSpace=wrap;html=1;dashed=0;strokeWidth=2;" parent="1" vertex="1">
          <mxGeometry x="715.25" y="638" width="90" height="90" as="geometry" />
        </mxCell>
        <mxCell id="CTmQaMRfLMgIivIih5rs-104" value="Yes" style="text;html=1;align=center;verticalAlign=middle;resizable=0;points=[];autosize=1;strokeColor=none;fillColor=none;" parent="1" vertex="1">
          <mxGeometry x="810" y="650" width="40" height="30" as="geometry" />
        </mxCell>
        <mxCell id="CTmQaMRfLMgIivIih5rs-106" style="edgeStyle=orthogonalEdgeStyle;rounded=0;orthogonalLoop=1;jettySize=auto;html=1;entryX=0.5;entryY=0;entryDx=0;entryDy=0;entryPerimeter=0;exitX=0.5;exitY=1;exitDx=0;exitDy=0;" parent="1" source="CTmQaMRfLMgIivIih5rs-100" target="CTmQaMRfLMgIivIih5rs-3" edge="1">
          <mxGeometry relative="1" as="geometry">
            <Array as="points">
              <mxPoint x="760" y="1240" />
              <mxPoint x="600" y="1240" />
            </Array>
            <mxPoint x="760.25" y="781" as="sourcePoint" />
          </mxGeometry>
        </mxCell>
        <mxCell id="CTmQaMRfLMgIivIih5rs-107" value="No" style="text;html=1;align=center;verticalAlign=middle;resizable=0;points=[];autosize=1;strokeColor=none;fillColor=none;" parent="1" vertex="1">
          <mxGeometry x="759" y="728" width="40" height="30" as="geometry" />
        </mxCell>
        <mxCell id="CTmQaMRfLMgIivIih5rs-125" style="edgeStyle=orthogonalEdgeStyle;rounded=0;orthogonalLoop=1;jettySize=auto;html=1;entryX=1;entryY=0.5;entryDx=0;entryDy=0;" parent="1" source="CTmQaMRfLMgIivIih5rs-118" target="CTmQaMRfLMgIivIih5rs-33" edge="1">
          <mxGeometry relative="1" as="geometry">
            <Array as="points">
              <mxPoint x="600" y="468" />
            </Array>
          </mxGeometry>
        </mxCell>
        <mxCell id="CTmQaMRfLMgIivIih5rs-118" value="Lanjutkan&lt;div&gt;Program ?&lt;/div&gt;" style="strokeWidth=2;html=1;shape=mxgraph.flowchart.decision;whiteSpace=wrap;" parent="1" vertex="1">
          <mxGeometry x="550" y="1012" width="100" height="100" as="geometry" />
        </mxCell>
        <mxCell id="CTmQaMRfLMgIivIih5rs-119" style="edgeStyle=orthogonalEdgeStyle;rounded=0;orthogonalLoop=1;jettySize=auto;html=1;entryX=0;entryY=0.5;entryDx=0;entryDy=0;entryPerimeter=0;exitX=1;exitY=0.5;exitDx=0;exitDy=0;" parent="1" source="CTmQaMRfLMgIivIih5rs-44" target="CTmQaMRfLMgIivIih5rs-118" edge="1">
          <mxGeometry relative="1" as="geometry">
            <Array as="points">
              <mxPoint x="486" y="860" />
              <mxPoint x="510" y="860" />
              <mxPoint x="510" y="1061" />
              <mxPoint x="550" y="1061" />
            </Array>
          </mxGeometry>
        </mxCell>
        <mxCell id="CTmQaMRfLMgIivIih5rs-121" style="edgeStyle=orthogonalEdgeStyle;rounded=0;orthogonalLoop=1;jettySize=auto;html=1;entryX=0;entryY=0.5;entryDx=0;entryDy=0;entryPerimeter=0;" parent="1" source="CTmQaMRfLMgIivIih5rs-80" target="CTmQaMRfLMgIivIih5rs-118" edge="1">
          <mxGeometry relative="1" as="geometry" />
        </mxCell>
        <mxCell id="CTmQaMRfLMgIivIih5rs-122" style="edgeStyle=orthogonalEdgeStyle;rounded=0;orthogonalLoop=1;jettySize=auto;html=1;entryX=0;entryY=0.5;entryDx=0;entryDy=0;entryPerimeter=0;" parent="1" source="CTmQaMRfLMgIivIih5rs-88" target="CTmQaMRfLMgIivIih5rs-118" edge="1">
          <mxGeometry relative="1" as="geometry" />
        </mxCell>
        <mxCell id="CTmQaMRfLMgIivIih5rs-123" style="edgeStyle=orthogonalEdgeStyle;rounded=0;orthogonalLoop=1;jettySize=auto;html=1;entryX=0;entryY=0.5;entryDx=0;entryDy=0;entryPerimeter=0;fillColor=#f8cecc;strokeColor=#000000;" parent="1" source="CTmQaMRfLMgIivIih5rs-91" target="CTmQaMRfLMgIivIih5rs-118" edge="1">
          <mxGeometry relative="1" as="geometry" />
        </mxCell>
        <mxCell id="CTmQaMRfLMgIivIih5rs-124" style="edgeStyle=orthogonalEdgeStyle;rounded=0;orthogonalLoop=1;jettySize=auto;html=1;entryX=0;entryY=0.5;entryDx=0;entryDy=0;entryPerimeter=0;" parent="1" source="CTmQaMRfLMgIivIih5rs-65" target="CTmQaMRfLMgIivIih5rs-118" edge="1">
          <mxGeometry relative="1" as="geometry" />
        </mxCell>
        <mxCell id="CTmQaMRfLMgIivIih5rs-126" value="Yes" style="text;html=1;align=center;verticalAlign=middle;resizable=0;points=[];autosize=1;strokeColor=none;fillColor=none;" parent="1" vertex="1">
          <mxGeometry x="600" y="982" width="40" height="30" as="geometry" />
        </mxCell>
        <mxCell id="CTmQaMRfLMgIivIih5rs-127" style="edgeStyle=orthogonalEdgeStyle;rounded=0;orthogonalLoop=1;jettySize=auto;html=1;entryX=0.5;entryY=0;entryDx=0;entryDy=0;entryPerimeter=0;" parent="1" source="CTmQaMRfLMgIivIih5rs-118" target="CTmQaMRfLMgIivIih5rs-3" edge="1">
          <mxGeometry relative="1" as="geometry" />
        </mxCell>
        <mxCell id="CTmQaMRfLMgIivIih5rs-128" value="No" style="text;html=1;align=center;verticalAlign=middle;resizable=0;points=[];autosize=1;strokeColor=none;fillColor=none;" parent="1" vertex="1">
          <mxGeometry x="560" y="1112" width="40" height="30" as="geometry" />
        </mxCell>
        <mxCell id="Szz_0jvh1cqQydP9ENVo-9" style="edgeStyle=orthogonalEdgeStyle;rounded=0;orthogonalLoop=1;jettySize=auto;html=1;entryX=0.5;entryY=0;entryDx=0;entryDy=0;" parent="1" source="Szz_0jvh1cqQydP9ENVo-7" target="CTmQaMRfLMgIivIih5rs-13" edge="1">
          <mxGeometry relative="1" as="geometry" />
        </mxCell>
        <mxCell id="Szz_0jvh1cqQydP9ENVo-7" value="Input username&amp;nbsp;&lt;div&gt;dan password&lt;/div&gt;" style="shape=parallelogram;perimeter=parallelogramPerimeter;whiteSpace=wrap;html=1;fixedSize=1;strokeColor=default;strokeWidth=2;align=center;verticalAlign=middle;fontFamily=Helvetica;fontSize=12;fontColor=default;fillColor=default;" parent="1" vertex="1">
          <mxGeometry x="366" y="3" width="120" height="60" as="geometry" />
        </mxCell>
        <mxCell id="Szz_0jvh1cqQydP9ENVo-14" value="Input Pilihan" style="shape=parallelogram;perimeter=parallelogramPerimeter;whiteSpace=wrap;html=1;dashed=0;strokeColor=default;strokeWidth=2;align=center;verticalAlign=middle;fontFamily=Helvetica;fontSize=12;fontColor=default;fillColor=default;" parent="1" vertex="1">
          <mxGeometry x="354.25" y="531" width="142.5" height="50" as="geometry" />
        </mxCell>
        <mxCell id="Szz_0jvh1cqQydP9ENVo-18" style="edgeStyle=orthogonalEdgeStyle;rounded=0;orthogonalLoop=1;jettySize=auto;html=1;entryX=0.5;entryY=0;entryDx=0;entryDy=0;entryPerimeter=0;" parent="1" source="Szz_0jvh1cqQydP9ENVo-14" target="CTmQaMRfLMgIivIih5rs-38" edge="1">
          <mxGeometry relative="1" as="geometry" />
        </mxCell>
        <mxCell id="Szz_0jvh1cqQydP9ENVo-22" style="edgeStyle=orthogonalEdgeStyle;rounded=0;orthogonalLoop=1;jettySize=auto;html=1;entryX=0.5;entryY=0;entryDx=0;entryDy=0;" parent="1" source="Szz_0jvh1cqQydP9ENVo-20" target="CTmQaMRfLMgIivIih5rs-52" edge="1">
          <mxGeometry relative="1" as="geometry" />
        </mxCell>
        <mxCell id="Szz_0jvh1cqQydP9ENVo-20" value="Input Nomor Kamar" style="shape=parallelogram;perimeter=parallelogramPerimeter;whiteSpace=wrap;html=1;dashed=0;strokeColor=default;strokeWidth=2;align=center;verticalAlign=middle;fontFamily=Helvetica;fontSize=12;fontColor=default;fillColor=default;" parent="1" vertex="1">
          <mxGeometry x="689" y="443" width="142.5" height="50" as="geometry" />
        </mxCell>
        <mxCell id="Szz_0jvh1cqQydP9ENVo-25" style="edgeStyle=orthogonalEdgeStyle;rounded=0;orthogonalLoop=1;jettySize=auto;html=1;entryX=0.5;entryY=0;entryDx=0;entryDy=0;" parent="1" source="Szz_0jvh1cqQydP9ENVo-23" target="CTmQaMRfLMgIivIih5rs-44" edge="1">
          <mxGeometry relative="1" as="geometry" />
        </mxCell>
        <mxCell id="Szz_0jvh1cqQydP9ENVo-23" value="Input username&lt;div&gt;dan password&lt;/div&gt;" style="shape=parallelogram;perimeter=parallelogramPerimeter;whiteSpace=wrap;html=1;dashed=0;strokeColor=default;strokeWidth=2;align=center;verticalAlign=middle;fontFamily=Helvetica;fontSize=12;fontColor=default;fillColor=default;" parent="1" vertex="1">
          <mxGeometry x="354.75" y="750" width="142.5" height="50" as="geometry" />
        </mxCell>
        <mxCell id="Szz_0jvh1cqQydP9ENVo-31" style="edgeStyle=orthogonalEdgeStyle;rounded=0;orthogonalLoop=1;jettySize=auto;html=1;exitX=1;exitY=0.5;exitDx=0;exitDy=0;entryX=0;entryY=0.5;entryDx=0;entryDy=0;" parent="1" source="Szz_0jvh1cqQydP9ENVo-28" target="CTmQaMRfLMgIivIih5rs-65" edge="1">
          <mxGeometry relative="1" as="geometry" />
        </mxCell>
        <mxCell id="Szz_0jvh1cqQydP9ENVo-28" value="Input nomor kamar" style="shape=parallelogram;perimeter=parallelogramPerimeter;whiteSpace=wrap;html=1;dashed=0;strokeColor=default;strokeWidth=2;align=center;verticalAlign=middle;fontFamily=Helvetica;fontSize=12;fontColor=default;fillColor=default;" parent="1" vertex="1">
          <mxGeometry x="188.5" y="917" width="142.5" height="50" as="geometry" />
        </mxCell>
        <mxCell id="Szz_0jvh1cqQydP9ENVo-34" style="edgeStyle=orthogonalEdgeStyle;rounded=0;orthogonalLoop=1;jettySize=auto;html=1;exitX=1;exitY=0.5;exitDx=0;exitDy=0;entryX=0;entryY=0.5;entryDx=0;entryDy=0;" parent="1" source="Szz_0jvh1cqQydP9ENVo-32" target="CTmQaMRfLMgIivIih5rs-88" edge="1">
          <mxGeometry relative="1" as="geometry" />
        </mxCell>
        <mxCell id="Szz_0jvh1cqQydP9ENVo-32" value="Input nomor kamar&amp;nbsp;&lt;div&gt;lama dan baru&lt;/div&gt;" style="shape=parallelogram;perimeter=parallelogramPerimeter;whiteSpace=wrap;html=1;dashed=0;strokeColor=default;strokeWidth=2;align=center;verticalAlign=middle;fontFamily=Helvetica;fontSize=12;fontColor=default;fillColor=default;" parent="1" vertex="1">
          <mxGeometry x="182.5" y="1158" width="142.5" height="50" as="geometry" />
        </mxCell>
        <mxCell id="Szz_0jvh1cqQydP9ENVo-38" style="edgeStyle=orthogonalEdgeStyle;rounded=0;orthogonalLoop=1;jettySize=auto;html=1;exitX=1;exitY=0.5;exitDx=0;exitDy=0;" parent="1" source="Szz_0jvh1cqQydP9ENVo-35" target="CTmQaMRfLMgIivIih5rs-91" edge="1">
          <mxGeometry relative="1" as="geometry" />
        </mxCell>
        <mxCell id="Szz_0jvh1cqQydP9ENVo-35" value="Input nomor kamar" style="shape=parallelogram;perimeter=parallelogramPerimeter;whiteSpace=wrap;html=1;dashed=0;strokeColor=default;strokeWidth=2;align=center;verticalAlign=middle;fontFamily=Helvetica;fontSize=12;fontColor=default;fillColor=default;" parent="1" vertex="1">
          <mxGeometry x="182.5" y="1277" width="142.5" height="50" as="geometry" />
        </mxCell>
        <mxCell id="ys0p1O7EgWVjhq2hk7gU-2" value="" style="edgeStyle=orthogonalEdgeStyle;rounded=0;orthogonalLoop=1;jettySize=auto;html=1;" edge="1" parent="1" source="CTmQaMRfLMgIivIih5rs-42" target="ys0p1O7EgWVjhq2hk7gU-1">
          <mxGeometry relative="1" as="geometry">
            <mxPoint x="107" y="713" as="sourcePoint" />
            <mxPoint x="107" y="902" as="targetPoint" />
          </mxGeometry>
        </mxCell>
        <mxCell id="ys0p1O7EgWVjhq2hk7gU-1" value="Input Pilihan" style="shape=parallelogram;perimeter=parallelogramPerimeter;whiteSpace=wrap;html=1;dashed=0;strokeColor=default;strokeWidth=2;align=center;verticalAlign=middle;fontFamily=Helvetica;fontSize=12;fontColor=default;fillColor=default;" vertex="1" parent="1">
          <mxGeometry x="35.75" y="763" width="142.5" height="50" as="geometry" />
        </mxCell>
      </root>
    </mxGraphModel>
  </diagram>
</mxfile>
